#!OML:ASF F:\VICON\USERDATA\INSTALL\rory3\rory3.ASF
:FULLY-SPECIFIED
:DEGREES
5183
root -2.53754 18.7848 2.95191 3.72549 -16.4358 -1.53278
lowerback 6.4149 0.762884 0.780312
upperback -0.223441 0.885999 -4.62373
thorax -3.74988 0.376291 -5.34124
lowerneck -13.9952 -7.31947 -8.94397
upperneck -3.10534 -8.76483 14.5519
head 2.43458 -3.91586 5.30721
rclavicle -3.65764e-014 9.54166e-015
rhumerus 65.8872 -28.156 -47.5359
rradius 56.9428
rwrist 22.2122
rhand -56.1667 364.229
rfingers 7.12502
rthumb -28.4955 -23.6201
lclavicle -3.65764e-014 9.54166e-015
lhumerus -26.4156 4.41895 63.7003
lradius 24.8904
lwrist -10.5145
lhand -30.3863 18.0062
lfingers 7.12502
lthumb -3.69047 47.954
rfemur -10.699 18.5897 17.8089
rtibia 26.5034
rfoot -15.1358 -16.7809
rtoes -8.82395
lfemur -3.91228 -3.12127 -5.63793
ltibia 24.2377
lfoot -10.0319 16.3504
ltoes -22.0484
5184
root -2.53957 18.7624 2.94839 3.64913 -16.6059 -1.42573
lowerback 6.39112 0.777744 0.745379
upperback -0.180824 0.905502 -4.60986
thorax -3.69095 0.388382 -5.30674
lowerneck -13.5837 -7.25835 -8.9621
upperneck -3.27776 -8.69021 14.5337
head 2.31053 -3.89975 5.32383
rclavicle 1.94809e-014 -4.45278e-014
rhumerus 65.0489 -27.7949 -46.827
rradius 57.5403
rwrist 21.8039
rhand -56.103 363.79
rfingers 7.12502
rthumb -28.4346 -24.0691
lclavicle 1.94809e-014 -4.45278e-014
lhumerus -26.2965 4.09277 63.9653
lradius 25.0584
lwrist -10.4249
lhand -30.4173 18.1663
lfingers 7.12502
lthumb -3.72047 48.1135
rfemur -11.068 18.8406 17.7187
rtibia 27.244
rfoot -15.4819 -16.9211
rtoes -9.12248
lfemur -3.64216 -3.15431 -5.80295
ltibia 23.9398
lfoot -10.4485 16.5834
ltoes -21.3038
5185
root -2.53865 18.7358 2.94108 3.57247 -16.7173 -1.24824
lowerback 6.39306 0.762852 0.593842
upperback -0.103898 0.878558 -4.5592
thorax -3.61755 0.380426 -5.16231
lowerneck -13.5638 -7.17937 -9.00295
upperneck -3.16811 -8.587 14.4672
head 2.32565 -3.84829 5.31801
rclavicle 2.92213e-014 9.54166e-015
rhumerus 64.4444 -27.3477 -46.4402
rradius 58.2457
rwrist 21.8322
rhand -56.0095 364.546
rfingers 7.12502
rthumb -28.3453 -23.3284
lclavicle 2.92213e-014 9.54166e-015
lhumerus -26.1357 3.91562 64.2812
lradius 25.259
lwrist -10.365
lhand -30.3588 18.5162
lfingers 7.12502
lthumb -3.66399 48.4644
rfemur -11.4957 18.9627 17.5256
rtibia 28.0888
rfoot -15.9982 -16.9066
rtoes -8.94362
lfemur -3.33285 -3.01843 -6.07342
ltibia 23.5944
lfoot -10.6996 16.7358
ltoes -21.2313
5186
root -2.53646 18.6991 2.92958 3.56666 -16.8103 -1.24842
lowerback 6.41138 0.758975 0.615422
upperback -0.0132456 0.881164 -4.47422
thorax -3.53421 0.384711 -5.08351
lowerneck -13.6738 -7.13906 -8.89182
upperneck -3.02468 -8.54842 14.2757
head 2.36418 -3.82762 5.23943
rclavicle -4.47266e-014 2.70347e-014
rhumerus 63.7303 -26.943 -45.8709
rradius 58.9875
rwrist 21.9576
rhand -55.9249 364.9
rfingers 7.12502
rthumb -28.2644 -22.9882
lclavicle -4.47266e-014 2.70347e-014
lhumerus -25.8818 3.81367 64.5658
lradius 25.3635
lwrist -10.3783
lhand -30.18 18.492
lfingers 7.12502
lthumb -3.49127 48.4431
rfemur -12.0148 18.9839 17.5017
rtibia 28.9744
rfoot -16.489 -16.8199
rtoes -8.7047
lfemur -2.98713 -2.72229 -6.15124
ltibia 23.2165
lfoot -10.8204 16.7795
ltoes -21.3807
5187
root -2.53325 18.6717 2.91961 3.63501 -16.9824 -1.35827
lowerback 6.3899 0.786067 0.772654
upperback 0.0656871 0.935707 -4.3857
thorax -3.43392 0.412819 -5.0825
lowerneck -13.6476 -7.14206 -8.68078
upperneck -3.05397 -8.57306 14.0043
head 2.32826 -3.85065 5.12023
rclavicle -6.63941e-014 2.54444e-014
rhumerus 62.8303 -26.567 -45.0219
rradius 59.7269
rwrist 22.0652
rhand -55.6757 365.003
rfingers 7.12502
rthumb -28.0263 -22.9244
lclavicle -6.63941e-014 2.54444e-014
lhumerus -25.6388 3.48954 64.8887
lradius 25.5664
lwrist -10.1172
lhand -30.0812 18.623
lfingers 7.12502
lthumb -3.39583 48.5757
rfemur -12.4961 19.1886 17.5322
rtibia 29.7941
rfoot -17.3247 -16.4947
rtoes -6.46636
lfemur -2.7184 -2.60319 -6.11457
ltibia 22.817
lfoot -11.318 16.9698
ltoes -20.5085
5188
root -2.52844 18.6543 2.91094 3.66555 -17.1857 -1.43723
lowerback 6.41727 0.786144 0.906488
upperback 0.146518 0.951205 -4.30005
thorax -3.36306 0.421432 -5.06891
lowerneck -13.5409 -7.09372 -8.60314
upperneck -3.21662 -8.50981 13.9471
head 2.24965 -3.82971 5.10066
rclavicle -1.98785e-014 -2.54444e-014
rhumerus 61.9898 -26.064 -44.2096
rradius 60.4335
rwrist 22.2915
rhand -55.257 366.076
rfingers 7.12502
rthumb -27.6259 -21.916
lclavicle -1.98785e-014 -2.54444e-014
lhumerus -25.5657 3.19878 65.1996
lradius 25.9898
lwrist -9.62127
lhand -30.1131 18.9052
lfingers 7.12502
lthumb -3.42669 48.8574
rfemur -12.8567 19.3677 17.5285
rtibia 30.4575
rfoot -18.0702 -16.0882
rtoes -4.2361
lfemur -2.48633 -2.69719 -6.14915
ltibia 22.4812
lfoot -11.9267 17.4066
ltoes -19.6893
5189
root -2.52224 18.6386 2.90885 3.64772 -17.3412 -1.49343
lowerback 6.42362 0.751109 1.01912
upperback 0.211267 0.919842 -4.16577
thorax -3.3026 0.40715 -4.98757
lowerneck -13.4082 -6.96694 -8.67782
upperneck -3.28922 -8.32974 13.9445
head 2.19067 -3.74674 5.13184
rclavicle -3.20043e-014 2.06736e-014
rhumerus 61.1032 -25.3686 -43.239
rradius 61.1999
rwrist 22.6941
rhand -55.4077 366.922
rfingers 7.12502
rthumb -27.77 -21.0469
lclavicle -3.20043e-014 2.06736e-014
lhumerus -25.6847 3.14643 65.5218
lradius 26.4857
lwrist -9.41696
lhand -29.9258 19.3005
lfingers 7.12502
lthumb -3.24582 49.2556
rfemur -13.144 19.1454 17.5945
rtibia 30.9227
rfoot -17.9834 -16.067
rtoes -6.04733
lfemur -2.26813 -2.88734 -6.24868
ltibia 22.3118
lfoot -12.6452 17.9158
ltoes -18.7566
